<svg version="1.1" id="Layer_1" xmlns="http://www.w3.org/2000/svg" xmlns:xlink="http://www.w3.org/1999/xlink" x="0px" y="0px"
	 width="100%" viewBox="0 0 272 240" enable-background="new 0 0 272 240" xml:space="preserve">
<path fill="#000000" opacity="1.000000" stroke="none" 
	d="
M127.452606,185.487000 
	C123.820908,179.280762 120.497360,173.312836 116.876595,167.531006 
	C115.100021,164.694077 114.661469,162.344437 116.582344,159.307846 
	C120.209282,153.574265 123.440994,147.590668 127.310463,140.891174 
	C134.601929,150.942627 139.286499,161.577362 146.266800,171.926163 
	C169.151672,132.330185 191.660202,93.385345 214.721375,53.484341 
	C202.332764,53.484341 190.953033,53.484341 179.421631,53.484341 
	C178.929733,49.097843 182.209702,47.041271 183.261139,44.055935 
	C187.078720,33.216743 194.147659,29.260584 205.980515,30.366341 
	C219.686874,31.647171 233.604736,30.649651 247.430695,30.683233 
	C249.229309,30.687601 251.094055,30.303406 253.709396,31.645760 
	C218.058655,93.378700 182.450989,155.037018 146.117584,217.952026 
	C139.487228,206.416595 133.562775,196.109299 127.452606,185.487000 
z"/>
<path fill="#000000" opacity="1.000000" stroke="none" 
	d="
M60.089790,68.841057 
	C52.861931,56.327995 45.821270,44.131161 38.143826,30.831194 
	C47.071548,30.831194 54.790508,30.740274 62.505016,30.885448 
	C64.883614,30.930206 65.479996,33.358505 66.443939,35.020256 
	C78.808372,56.335495 91.112419,77.685760 103.459946,99.010818 
	C105.851013,103.140381 108.362740,107.200081 110.998749,111.591805 
	C114.908478,108.392227 116.381340,104.223373 118.511482,100.596596 
	C131.244659,78.917038 143.888962,57.184196 156.371765,35.359798 
	C158.357986,31.887163 160.585724,30.364422 164.646210,30.578474 
	C170.923386,30.909378 177.230865,30.665712 185.267471,30.665712 
	C160.508621,73.559021 136.463272,115.216225 111.637093,158.226196 
	C94.061661,127.746803 77.169327,98.452049 60.089790,68.841057 
z"/>
</svg>